<svg xmlns="http://www.w3.org/2000/svg" xmlns:xlink="http://www.w3.org/1999/xlink" xmlns:lucid="lucid" width="1760" height="1360"><g transform="translate(0 0)" lucid:page-tab-id="0_0"><path d="M20 45a5 5 0 0 1 5-5h270a5 5 0 0 1 5 5v190a5 5 0 0 1-5 5H25a5 5 0 0 1-5-5z" fill="#fff"/><path d="M20 80V45a5 5 0 0 1 5-5h270a5 5 0 0 1 5 5v35" fill="#ccc"/><path d="M20 45a5 5 0 0 1 5-5h270a5 5 0 0 1 5 5v190a5 5 0 0 1-5 5H25a5 5 0 0 1-5-5zM20 80h280M160 80v160" stroke="#333" fill="none"/><use xlink:href="#a" transform="matrix(1,0,0,1,30,40) translate(0 23.6)"/><use xlink:href="#b" transform="matrix(1,0,0,1,25,82.5) translate(0 17.1)"/><use xlink:href="#c" transform="matrix(1,0,0,1,165,82.5) translate(0 17.1)"/><use xlink:href="#d" transform="matrix(1,0,0,1,25,114.5) translate(0 17.1)"/><use xlink:href="#e" transform="matrix(1,0,0,1,165,114.5) translate(0 17.1)"/><use xlink:href="#f" transform="matrix(1,0,0,1,25,146.5) translate(0 17.1)"/><use xlink:href="#e" transform="matrix(1,0,0,1,165,146.5) translate(0 17.1)"/><use xlink:href="#g" transform="matrix(1,0,0,1,25,178.5) translate(0 17.1)"/><use xlink:href="#h" transform="matrix(1,0,0,1,165,178.5) translate(0 17.1)"/><use xlink:href="#i" transform="matrix(1,0,0,1,25,210.5) translate(0 17.1)"/><use xlink:href="#c" transform="matrix(1,0,0,1,165,210.5) translate(0 17.1)"/><path d="M20 301a5 5 0 0 1 5-5h270a5 5 0 0 1 5 5v94a5 5 0 0 1-5 5H25a5 5 0 0 1-5-5z" fill="#fff"/><path d="M20 336v-35a5 5 0 0 1 5-5h270a5 5 0 0 1 5 5v35" fill="#ccc"/><path d="M20 301a5 5 0 0 1 5-5h270a5 5 0 0 1 5 5v94a5 5 0 0 1-5 5H25a5 5 0 0 1-5-5zM20 336h280M160 336v64" stroke="#333" fill="none"/><use xlink:href="#j" transform="matrix(1,0,0,1,30,296) translate(0 23.6)"/><use xlink:href="#k" transform="matrix(1,0,0,1,25,338.5) translate(0 17.1)"/><use xlink:href="#c" transform="matrix(1,0,0,1,165,338.5) translate(0 17.1)"/><use xlink:href="#d" transform="matrix(1,0,0,1,25,370.5) translate(0 17.1)"/><use xlink:href="#e" transform="matrix(1,0,0,1,165,370.5) translate(0 17.1)"/><path d="M380 165a5 5 0 0 1 5-5h270a5 5 0 0 1 5 5v126a5 5 0 0 1-5 5H385a5 5 0 0 1-5-5z" fill="#fff"/><path d="M380 200v-35a5 5 0 0 1 5-5h270a5 5 0 0 1 5 5v35" fill="#ccc"/><path d="M380 165a5 5 0 0 1 5-5h270a5 5 0 0 1 5 5v126a5 5 0 0 1-5 5H385a5 5 0 0 1-5-5zM380 200h280M518.28 200v96" stroke="#333" fill="none"/><use xlink:href="#l" transform="matrix(1,0,0,1,390,160) translate(0 23.6)"/><use xlink:href="#b" transform="matrix(1,0,0,1,385,202.5) translate(0 17.1)"/><use xlink:href="#c" transform="matrix(1,0,0,1,523.2798345758615,202.5) translate(0 17.1)"/><use xlink:href="#k" transform="matrix(1,0,0,1,385,234.5) translate(0 17.1)"/><use xlink:href="#c" transform="matrix(1,0,0,1,523.2798345758615,234.5) translate(0 17.1)"/><use xlink:href="#m" transform="matrix(1,0,0,1,385,266.5) translate(0 17.1)"/><use xlink:href="#c" transform="matrix(1,0,0,1,523.2798345758615,266.5) translate(0 17.1)"/><path d="M301 96h27a12 12 0 0 1 12 12v96a12 12 0 0 0 12 12h11.12" stroke="#333" fill="none"/><path d="M301 96.47h-.5v-.94h.5z" stroke="#333" stroke-width=".05" fill="#333"/><path d="M377.88 216l-14.26 4.63v-9.26z" stroke="#333" fill="#333"/><path d="M301 352h27a12 12 0 0 0 12-12v-80a12 12 0 0 1 12-12h11.12" stroke="#333" fill="none"/><path d="M301 352.48h-.5v-.96h.5z" stroke="#333" stroke-width=".05" fill="#333"/><path d="M377.88 248l-14.26 4.63v-9.26z" stroke="#333" fill="#333"/><path d="M720 113a5 5 0 0 1 5-5h270a5 5 0 0 1 5 5v222a5 5 0 0 1-5 5H725a5 5 0 0 1-5-5z" fill="#fff"/><path d="M720 148v-35a5 5 0 0 1 5-5h270a5 5 0 0 1 5 5v35" fill="#ccc"/><path d="M720 113a5 5 0 0 1 5-5h270a5 5 0 0 1 5 5v222a5 5 0 0 1-5 5H725a5 5 0 0 1-5-5zM720 148h280M860 148v192" stroke="#333" fill="none"/><use xlink:href="#n" transform="matrix(1,0,0,1,730,108) translate(0 23.6)"/><use xlink:href="#g" transform="matrix(1,0,0,1,725,150.5) translate(0 17.1)"/><use xlink:href="#h" transform="matrix(1,0,0,1,865,150.5) translate(0 17.1)"/><use xlink:href="#o" transform="matrix(1,0,0,1,725,182.5) translate(0 17.1)"/><use xlink:href="#c" transform="matrix(1,0,0,1,865,182.5) translate(0 17.1)"/><use xlink:href="#p" transform="matrix(1,0,0,1,725,214.5) translate(0 17.1)"/><use xlink:href="#c" transform="matrix(1,0,0,1,865,214.5) translate(0 17.1)"/><use xlink:href="#q" transform="matrix(1,0,0,1,725,246.5) translate(0 17.1)"/><use xlink:href="#c" transform="matrix(1,0,0,1,865,246.5) translate(0 17.1)"/><use xlink:href="#r" transform="matrix(1,0,0,1,725,278.5) translate(0 17.1)"/><use xlink:href="#e" transform="matrix(1,0,0,1,865,278.5) translate(0 17.1)"/><use xlink:href="#s" transform="matrix(1,0,0,1,725,310.5) translate(0 17.1)"/><use xlink:href="#e" transform="matrix(1,0,0,1,865,310.5) translate(0 17.1)"/><path d="M1120 56a16 16 0 0 1 16-16h208a16 16 0 0 1 16 16v167.44a16 16 0 0 1-16 16h-208a16 16 0 0 1-16-16z" stroke="#dfe3e8" stroke-width="2" fill="#fff"/><path d="M1189.18 124c0 8.2-6.63 14.83-14.82 14.83-8.2 0-14.83-6.64-14.83-14.82s6.64-14.82 14.83-14.82c8.2 0 14.82 6.64 14.82 14.83z" stroke="#000" stroke-opacity=".25" fill-opacity="0"/><path d="M1189.18 163.54c0 8.2-6.63 14.83-14.82 14.83-8.2 0-14.83-6.64-14.83-14.83 0-8.2 6.64-14.82 14.83-14.82 8.2 0 14.82 6.63 14.82 14.82zM1189.18 203.07c0 8.2-6.63 14.83-14.82 14.83-8.2 0-14.83-6.64-14.83-14.83 0-8.18 6.64-14.82 14.83-14.82 8.2 0 14.82 6.64 14.82 14.82z" stroke="#000" stroke-opacity=".25" fill="#f2f3f5"/><use xlink:href="#t" transform="matrix(1,0,0,1,1159.5330708065128,69.64980310488451) translate(0 11.624323463865007)"/><use xlink:href="#u" transform="matrix(1,0,0,1,1159.5330708065128,69.64980310488451) translate(0 30.80445717924227)"/><use xlink:href="#v" transform="matrix(1,0,0,1,1204.0077754638394,109.18287391139721) translate(0 17.711111111111112)"/><use xlink:href="#w" transform="matrix(1,0,0,1,1204.0077754638394,109.18287391139721) translate(11.296296296296296 17.711111111111112)"/><use xlink:href="#x" transform="matrix(1,0,0,1,1204.0077754638394,109.18287391139721) translate(22.969135802469133 17.711111111111112)"/><use xlink:href="#y" transform="matrix(1,0,0,1,1204.0077754638394,148.7159447179099) translate(0 17.711111111111112)"/><use xlink:href="#w" transform="matrix(1,0,0,1,1204.0077754638394,148.7159447179099) translate(11.296296296296296 17.711111111111112)"/><use xlink:href="#z" transform="matrix(1,0,0,1,1204.0077754638394,148.7159447179099) translate(22.969135802469133 17.711111111111112)"/><use xlink:href="#A" transform="matrix(1,0,0,1,1204.0077754638394,188.2490155244226) translate(0 17.711111111111112)"/><use xlink:href="#w" transform="matrix(1,0,0,1,1204.0077754638394,188.2490155244226) translate(11.296296296296296 17.711111111111112)"/><use xlink:href="#B" transform="matrix(1,0,0,1,1204.0077754638394,188.2490155244226) translate(22.969135802469133 17.711111111111112)"/><path d="M1120 312a16 16 0 0 1 16-16h208a16 16 0 0 1 16 16v167.44a16 16 0 0 1-16 16h-208a16 16 0 0 1-16-16z" stroke="#dfe3e8" stroke-width="2" fill="#fff"/><path d="M1188.55 379.24c0 8.1-6.58 14.7-14.7 14.7-8.1 0-14.68-6.6-14.68-14.7 0-8.12 6.58-14.7 14.7-14.7 8.1 0 14.68 6.58 14.68 14.7z" stroke="#000" stroke-opacity=".25" fill-opacity="0"/><path d="M1188.55 418.4c0 8.12-6.58 14.7-14.7 14.7-8.1 0-14.68-6.58-14.68-14.7 0-8.1 6.58-14.68 14.7-14.68 8.1 0 14.68 6.57 14.68 14.7zM1188.55 457.58c0 8.1-6.58 14.68-14.7 14.68-8.1 0-14.68-6.57-14.68-14.68 0-8.12 6.58-14.7 14.7-14.7 8.1 0 14.68 6.58 14.68 14.7z" stroke="#000" stroke-opacity=".25" fill="#f2f3f5"/><use xlink:href="#C" transform="matrix(1,0,0,1,1159.1698854337153,325.3774140752864) translate(0 12.622222222222224)"/><use xlink:href="#D" transform="matrix(1,0,0,1,1159.1698854337153,325.3774140752864) translate(0 32.45099013053168)"/><use xlink:href="#v" transform="matrix(1,0,0,1,1203.2360065466448,364.5472995090016) translate(0 17.711111111111112)"/><use xlink:href="#w" transform="matrix(1,0,0,1,1203.2360065466448,364.5472995090016) translate(11.296296296296296 17.711111111111112)"/><use xlink:href="#E" transform="matrix(1,0,0,1,1203.2360065466448,364.5472995090016) translate(22.969135802469133 17.711111111111112)"/><use xlink:href="#y" transform="matrix(1,0,0,1,1203.2360065466448,403.71718494271687) translate(0 17.711111111111112)"/><use xlink:href="#w" transform="matrix(1,0,0,1,1203.2360065466448,403.71718494271687) translate(11.296296296296296 17.711111111111112)"/><use xlink:href="#F" transform="matrix(1,0,0,1,1203.2360065466448,403.71718494271687) translate(22.969135802469133 17.711111111111112)"/><use xlink:href="#A" transform="matrix(1,0,0,1,1203.2360065466448,442.8870703764321) translate(0 17.711111111111112)"/><use xlink:href="#w" transform="matrix(1,0,0,1,1203.2360065466448,442.8870703764321) translate(11.296296296296296 17.711111111111112)"/><use xlink:href="#G" transform="matrix(1,0,0,1,1203.2360065466448,442.8870703764321) translate(22.969135802469133 17.711111111111112)"/><path d="M1118.5 334.4h-46.75a12 12 0 0 1-12-12V272a12 12 0 0 0-12-12h-30.87" stroke="#333" fill="none"/><path d="M1119 334.88h-.5v-.95h.5z" stroke="#333" stroke-width=".05" fill="#333"/><path d="M1002.12 260l14.26-4.63v9.26z" stroke="#333" fill="#333"/><path d="M1118.5 75.9h-46.75a12 12 0 0 0-12 12V216a12 12 0 0 1-12 12h-30.87" stroke="#333" fill="none"/><path d="M1119 76.37h-.5v-.95h.5z" stroke="#333" stroke-width=".05" fill="#333"/><path d="M1002.12 228l14.26-4.63v9.26z" stroke="#333" fill="#333"/><path d="M1361.5 376.1h56.5a12 12 0 0 0 12-12V32a12 12 0 0 0-12-12H163.12a3.12 3.12 0 0 0-3.12 3.12" stroke="#333" fill="none"/><path d="M1361.5 376.58h-.5v-.95h.5z" stroke="#333" stroke-width=".05" fill="#333"/><path d="M160 37.88l-4.63-14.26h9.26z" stroke="#333" fill="#333"/><path d="M1361.5 417h56.5a12 12 0 0 1 12 12v79a12 12 0 0 1-12 12H172a12 12 0 0 1-12-12v-91.12" stroke="#333" fill="none"/><path d="M1361.5 417.48h-.5v-.96h.5z" stroke="#333" stroke-width=".05" fill="#333"/><path d="M160 402.12l4.63 14.26h-9.26z" stroke="#333" fill="#333"/><path d="M1118.5 458H532a12 12 0 0 1-12-12V312.88" stroke="#333" fill="none"/><path d="M1119 458.48h-.5v-.96h.5z" stroke="#333" stroke-width=".05" fill="#333"/><path d="M520 298.12l4.63 14.26h-9.26z" stroke="#333" fill="#333"/><path d="M40 685a5 5 0 0 1 5-5h270a5 5 0 0 1 5 5v318a5 5 0 0 1-5 5H45a5 5 0 0 1-5-5z" fill="#fff"/><path d="M40 720v-35a5 5 0 0 1 5-5h270a5 5 0 0 1 5 5v35" fill="#ccc"/><path d="M40 685a5 5 0 0 1 5-5h270a5 5 0 0 1 5 5v318a5 5 0 0 1-5 5H45a5 5 0 0 1-5-5zM40 720h280M180 720v288" stroke="#333" fill="none"/><use xlink:href="#H" transform="matrix(1,0,0,1,50,680) translate(0 23.6)"/><use xlink:href="#m" transform="matrix(1,0,0,1,45,722.5) translate(0 17.1)"/><use xlink:href="#c" transform="matrix(1,0,0,1,185,722.5) translate(0 17.1)"/><use xlink:href="#I" transform="matrix(1,0,0,1,45,754.5) translate(0 17.1)"/><use xlink:href="#e" transform="matrix(1,0,0,1,185,754.5) translate(0 17.1)"/><use xlink:href="#J" transform="matrix(1,0,0,1,45,786.5) translate(0 17.1)"/><use xlink:href="#c" transform="matrix(1,0,0,1,185,786.5) translate(0 17.1)"/><use xlink:href="#K" transform="matrix(1,0,0,1,45,818.5) translate(0 17.1)"/><use xlink:href="#e" transform="matrix(1,0,0,1,185,818.5) translate(0 17.1)"/><use xlink:href="#L" transform="matrix(1,0,0,1,45,850.5) translate(0 17.1)"/><use xlink:href="#M" transform="matrix(1,0,0,1,185,850.5) translate(0 17.1)"/><use xlink:href="#N" transform="matrix(1,0,0,1,45,882.5) translate(0 17.1)"/><use xlink:href="#h" transform="matrix(1,0,0,1,185,882.5) translate(0 17.1)"/><use xlink:href="#O" transform="matrix(1,0,0,1,45,914.5) translate(0 17.1)"/><use xlink:href="#h" transform="matrix(1,0,0,1,185,914.5) translate(0 17.1)"/><use xlink:href="#P" transform="matrix(1,0,0,1,45,946.5) translate(0 17.1)"/><use xlink:href="#h" transform="matrix(1,0,0,1,185,946.5) translate(0 17.1)"/><use xlink:href="#Q" transform="matrix(1,0,0,1,45,978.5) translate(0 17.1)"/><use xlink:href="#h" transform="matrix(1,0,0,1,185,978.5) translate(0 17.1)"/><path d="M560 625a5 5 0 0 1 5-5h270a5 5 0 0 1 5 5v158a5 5 0 0 1-5 5H565a5 5 0 0 1-5-5z" fill="#fff"/><path d="M560 660v-35a5 5 0 0 1 5-5h270a5 5 0 0 1 5 5v35" fill="#ccc"/><path d="M560 625a5 5 0 0 1 5-5h270a5 5 0 0 1 5 5v158a5 5 0 0 1-5 5H565a5 5 0 0 1-5-5zM560 660h280M700 660v128" stroke="#333" fill="none"/><use xlink:href="#R" transform="matrix(1,0,0,1,570,620) translate(0 23.6)"/><use xlink:href="#m" transform="matrix(1,0,0,1,565,662.5) translate(0 17.1)"/><use xlink:href="#c" transform="matrix(1,0,0,1,705,662.5) translate(0 17.1)"/><use xlink:href="#S" transform="matrix(1,0,0,1,565,694.5) translate(0 17.1)"/><use xlink:href="#c" transform="matrix(1,0,0,1,705,694.5) translate(0 17.1)"/><use xlink:href="#T" transform="matrix(1,0,0,1,565,726.5) translate(0 17.1)"/><use xlink:href="#e" transform="matrix(1,0,0,1,705,726.5) translate(0 17.1)"/><use xlink:href="#O" transform="matrix(1,0,0,1,565,758.5) translate(0 17.1)"/><use xlink:href="#h" transform="matrix(1,0,0,1,705,758.5) translate(0 17.1)"/><path d="M321 735.6h107a12 12 0 0 0 12-12v-35.7a12 12 0 0 1 12-12h91.12" stroke="#333" fill="none"/><path d="M321 736.1h-.5v-.96h.5z" stroke="#333" stroke-width=".05" fill="#333"/><path d="M557.88 675.9l-14.26 4.63v-9.26z" stroke="#333" fill="#333"/><path d="M560 825a5 5 0 0 1 5-5h270a5 5 0 0 1 5 5v158a5 5 0 0 1-5 5H565a5 5 0 0 1-5-5z" fill="#fff"/><path d="M560 860v-35a5 5 0 0 1 5-5h270a5 5 0 0 1 5 5v35" fill="#ccc"/><path d="M560 825a5 5 0 0 1 5-5h270a5 5 0 0 1 5 5v158a5 5 0 0 1-5 5H565a5 5 0 0 1-5-5zM560 860h280M700 860v128" stroke="#333" fill="none"/><use xlink:href="#U" transform="matrix(1,0,0,1,570,820) translate(0 23.6)"/><use xlink:href="#m" transform="matrix(1,0,0,1,565,862.5) translate(0 17.1)"/><use xlink:href="#c" transform="matrix(1,0,0,1,705,862.5) translate(0 17.1)"/><use xlink:href="#S" transform="matrix(1,0,0,1,565,894.5) translate(0 17.1)"/><use xlink:href="#c" transform="matrix(1,0,0,1,705,894.5) translate(0 17.1)"/><use xlink:href="#V" transform="matrix(1,0,0,1,565,926.5) translate(0 17.1)"/><use xlink:href="#e" transform="matrix(1,0,0,1,705,926.5) translate(0 17.1)"/><use xlink:href="#O" transform="matrix(1,0,0,1,565,958.5) translate(0 17.1)"/><use xlink:href="#h" transform="matrix(1,0,0,1,705,958.5) translate(0 17.1)"/><path d="M321 735.6h107a12 12 0 0 1 12 12V864a12 12 0 0 0 12 12h91.12" stroke="#333" fill="none"/><path d="M321 736.1h-.5v-.96h.5z" stroke="#333" stroke-width=".05" fill="#333"/><path d="M557.88 876l-14.26 4.63v-9.26z" stroke="#333" fill="#333"/><path d="M560 1025a5 5 0 0 1 5-5h270a5 5 0 0 1 5 5v254a5 5 0 0 1-5 5H565a5 5 0 0 1-5-5z" fill="#fff"/><path d="M560 1060v-35a5 5 0 0 1 5-5h270a5 5 0 0 1 5 5v35" fill="#ccc"/><path d="M560 1025a5 5 0 0 1 5-5h270a5 5 0 0 1 5 5v254a5 5 0 0 1-5 5H565a5 5 0 0 1-5-5zM560 1060h280M700 1060v224" stroke="#333" fill="none"/><use xlink:href="#W" transform="matrix(1,0,0,1,570,1020) translate(0 23.6)"/><use xlink:href="#m" transform="matrix(1,0,0,1,565,1062.5) translate(0 17.1)"/><use xlink:href="#c" transform="matrix(1,0,0,1,705,1062.5) translate(0 17.1)"/><use xlink:href="#X" transform="matrix(1,0,0,1,565,1094.5) translate(0 17.1)"/><use xlink:href="#e" transform="matrix(1,0,0,1,705,1094.5) translate(0 17.1)"/><use xlink:href="#Y" transform="matrix(1,0,0,1,565,1126.5) translate(0 17.1)"/><use xlink:href="#e" transform="matrix(1,0,0,1,705,1126.5) translate(0 17.1)"/><use xlink:href="#S" transform="matrix(1,0,0,1,565,1158.5) translate(0 17.1)"/><use xlink:href="#c" transform="matrix(1,0,0,1,705,1158.5) translate(0 17.1)"/><use xlink:href="#Z" transform="matrix(1,0,0,1,565,1190.5) translate(0 17.1)"/><use xlink:href="#h" transform="matrix(1,0,0,1,705,1190.5) translate(0 17.1)"/><use xlink:href="#O" transform="matrix(1,0,0,1,565,1222.5) translate(0 17.1)"/><use xlink:href="#h" transform="matrix(1,0,0,1,705,1222.5) translate(0 17.1)"/><use xlink:href="#P" transform="matrix(1,0,0,1,565,1254.5) translate(0 17.1)"/><use xlink:href="#h" transform="matrix(1,0,0,1,705,1254.5) translate(0 17.1)"/><path d="M321 735.6h107a12 12 0 0 1 12 12v316.13a12 12 0 0 0 12 12h91.12" stroke="#333" fill="none"/><path d="M321 736.1h-.5v-.96h.5z" stroke="#333" stroke-width=".05" fill="#333"/><path d="M557.88 1075.73l-14.26 4.63v-9.27z" stroke="#333" fill="#333"/><path d="M1000 645a5 5 0 0 1 5-5h270a5 5 0 0 1 5 5v414a5 5 0 0 1-5 5h-270a5 5 0 0 1-5-5z" fill="#fff"/><path d="M1000 680v-35a5 5 0 0 1 5-5h270a5 5 0 0 1 5 5v35" fill="#ccc"/><path d="M1000 645a5 5 0 0 1 5-5h270a5 5 0 0 1 5 5v414a5 5 0 0 1-5 5h-270a5 5 0 0 1-5-5zM1000 680h280M1140 680v384" stroke="#333" fill="none"/><use xlink:href="#aa" transform="matrix(1,0,0,1,1010,640) translate(0 23.6)"/><use xlink:href="#m" transform="matrix(1,0,0,1,1005,682.5) translate(0 17.1)"/><use xlink:href="#c" transform="matrix(1,0,0,1,1145,682.5) translate(0 17.1)"/><use xlink:href="#S" transform="matrix(1,0,0,1,1005,714.5) translate(0 17.1)"/><use xlink:href="#c" transform="matrix(1,0,0,1,1145,714.5) translate(0 17.1)"/><use xlink:href="#ab" transform="matrix(1,0,0,1,1005,746.5) translate(0 17.1)"/><use xlink:href="#e" transform="matrix(1,0,0,1,1145,746.5) translate(0 17.1)"/><use xlink:href="#ac" transform="matrix(1,0,0,1,1005,778.5) translate(0 17.1)"/><use xlink:href="#e" transform="matrix(1,0,0,1,1145,778.5) translate(0 17.1)"/><use xlink:href="#ad" transform="matrix(1,0,0,1,1005,810.5) translate(0 17.1)"/><use xlink:href="#e" transform="matrix(1,0,0,1,1145,810.5) translate(0 17.1)"/><use xlink:href="#ae" transform="matrix(1,0,0,1,1005,842.5) translate(0 17.1)"/><use xlink:href="#e" transform="matrix(1,0,0,1,1145,842.5) translate(0 17.1)"/><use xlink:href="#Z" transform="matrix(1,0,0,1,1005,874.5) translate(0 17.1)"/><use xlink:href="#h" transform="matrix(1,0,0,1,1145,874.5) translate(0 17.1)"/><g><use xlink:href="#af" transform="matrix(1,0,0,1,1005,906.5) translate(0 17.1)"/></g><g><use xlink:href="#ag" transform="matrix(1,0,0,1,1145,906.5) translate(0 17.1)"/></g><g><use xlink:href="#ah" transform="matrix(1,0,0,1,1005,938.5) translate(0 17.1)"/></g><g><use xlink:href="#M" transform="matrix(1,0,0,1,1145,938.5) translate(0 17.1)"/></g><g><use xlink:href="#ai" transform="matrix(1,0,0,1,1005,970.5) translate(0 17.1)"/></g><g><use xlink:href="#h" transform="matrix(1,0,0,1,1145,970.5) translate(0 17.1)"/></g><g><use xlink:href="#O" transform="matrix(1,0,0,1,1005,1002.5) translate(0 17.1)"/></g><g><use xlink:href="#h" transform="matrix(1,0,0,1,1145,1002.5) translate(0 17.1)"/></g><g><use xlink:href="#P" transform="matrix(1,0,0,1,1005,1034.5) translate(0 17.1)"/></g><g><use xlink:href="#h" transform="matrix(1,0,0,1,1145,1034.5) translate(0 17.1)"/></g><path d="M321 735.6h107a12 12 0 0 1 12 12V1288a12 12 0 0 0 12 12h495.5a12 12 0 0 0 12-12V739.56a12 12 0 0 1 12-12h11.62" stroke="#333" fill="none"/><path d="M321 736.1h-.5v-.96h.5z" stroke="#333" stroke-width=".05" fill="#333"/><path d="M997.88 727.56l-14.26 4.63v-9.28z" stroke="#333" fill="#333"/><defs><path fill="#333" d="M151-220L108 0H75l42-220H32l6-28h203l-5 28h-85" id="aj"/><path fill="#333" d="M30-147c31-64 166-65 159 27C183-49 158 1 86 4 9 8 1-88 30-147zM88-20c53 0 68-48 68-100 0-31-11-51-44-50-52 1-68 46-68 97 0 32 13 53 44 53" id="ak"/><path fill="#333" d="M248-139C247-14 144 9 11 0l48-248c105-6 190 8 189 109zm-34 0c1-70-52-87-126-82L50-27c98 7 163-21 164-112" id="al"/><g id="a"><use transform="matrix(0.05,0,0,0.05,0,0)" xlink:href="#aj"/><use transform="matrix(0.05,0,0,0.05,9.3,0)" xlink:href="#ak"/><use transform="matrix(0.05,0,0,0.05,19.3,0)" xlink:href="#al"/><use transform="matrix(0.05,0,0,0.05,32.25,0)" xlink:href="#ak"/></g><path fill="#333" d="M14 0l48-248h34L48 0H14" id="am"/><g id="b"><use transform="matrix(0.05,0,0,0.05,0,0)" xlink:href="#aj"/><use transform="matrix(0.05,0,0,0.05,9.3,0)" xlink:href="#ak"/><use transform="matrix(0.05,0,0,0.05,19.3,0)" xlink:href="#al"/><use transform="matrix(0.05,0,0,0.05,32.25,0)" xlink:href="#ak"/><use transform="matrix(0.05,0,0,0.05,42.25,0)" xlink:href="#am"/><use transform="matrix(0.05,0,0,0.05,47.25,0)" xlink:href="#al"/></g><path fill="#333" d="M50-231l6-30h32l-6 30H50zM6 0l37-190h31L37 0H6" id="an"/><path fill="#333" d="M67-158c22-48 132-52 116 29L158 0h-32l25-140c3-38-53-32-70-12C52-117 51-52 38 0H6l36-190h30" id="ao"/><path fill="#333" d="M51-54c-9 22 5 41 31 30L79-1C43 14 10-4 19-52l22-115H19l5-23h22l19-43h21l-9 43h35l-4 23H73" id="ap"/><g id="c"><use transform="matrix(0.05,0,0,0.05,0,0)" xlink:href="#an"/><use transform="matrix(0.05,0,0,0.05,3.95,0)" xlink:href="#ao"/><use transform="matrix(0.05,0,0,0.05,13.949999999999998,0)" xlink:href="#ap"/></g><path fill="#333" d="M219-77C219 17 104-2 11 0l48-248c73 2 169-15 169 57 0 38-24 54-60 60 29 5 51 21 51 54zm-26-111c0-44-62-31-105-33l-16 79c55 0 121 9 121-46zm-7 110c-1-49-69-36-119-38L50-27c61-1 137 12 136-51" id="aq"/><path fill="#333" d="M111-194c62-3 86 47 72 106H45c-7 38 6 69 45 68 27-1 43-14 53-32l24 11C152-15 129 4 87 4 38 3 12-23 12-71c0-70 32-119 99-123zm44 81c14-66-71-72-95-28-4 8-8 17-11 28h106" id="ar"/><path fill="#333" d="M-8 0l5-24 140-142H31l5-24h145l-5 24L36-24h119l-5 24H-8" id="as"/><path fill="#333" d="M44-68c0 29 11 47 38 47 30 0 42-19 51-41l28 9C148-21 126 4 82 4 31 4 10-29 12-85c3-77 74-140 146-93 12 8 15 23 18 40l-31 5c-1-22-13-36-36-36-52 0-65 49-65 101" id="at"/><path fill="#333" d="M67-158c15-20 31-36 64-36 94 0 33 127 27 194h-32l25-140c3-38-53-32-70-12C52-117 51-51 37 0H6l51-261h31" id="au"/><path fill="#333" d="M67 3c-93-2-31-127-26-193h32L48-50c-3 39 53 32 70 12 30-34 30-101 43-152h32L157 0h-30c1-10 6-24 4-33-14 20-29 37-64 36" id="av"/><path fill="#333" d="M103-194c29 0 47 14 56 36 2-11 5-23 8-32h30L160-5C157 61 82 97 21 62 9 55 4 45 1 30l28-7c7 42 83 31 92-3 4-16 9-38 13-55-13 20-29 36-62 36-40 0-60-25-60-64 0-71 23-131 91-131zm4 24c-53 0-58 54-61 104-2 27 10 44 36 44 49 0 65-50 67-102 1-29-15-46-42-46" id="aw"/><g id="d"><use transform="matrix(0.05,0,0,0.05,0,0)" xlink:href="#aq"/><use transform="matrix(0.05,0,0,0.05,12,0)" xlink:href="#ar"/><use transform="matrix(0.05,0,0,0.05,22,0)" xlink:href="#as"/><use transform="matrix(0.05,0,0,0.05,31,0)" xlink:href="#ar"/><use transform="matrix(0.05,0,0,0.05,41,0)" xlink:href="#an"/><use transform="matrix(0.05,0,0,0.05,44.95,0)" xlink:href="#at"/><use transform="matrix(0.05,0,0,0.05,53.95,0)" xlink:href="#au"/><use transform="matrix(0.05,0,0,0.05,63.95,0)" xlink:href="#ao"/><use transform="matrix(0.05,0,0,0.05,73.95,0)" xlink:href="#av"/><use transform="matrix(0.05,0,0,0.05,83.95,0)" xlink:href="#ao"/><use transform="matrix(0.05,0,0,0.05,93.95,0)" xlink:href="#aw"/></g><path fill="#333" d="M89 0H52L20-190h33L74-25l89-165h34" id="ax"/><path fill="#333" d="M165-48c-4 18 1 34 23 27l-3 20c-29 8-62 0-52-35h-2C116-14 99 4 63 4 30 4 8-16 8-49c0-68 71-67 138-67 10-26 0-56-31-54-26 1-42 9-47 31l-32-5c8-67 160-71 144 15-5 28-9 54-15 81zM42-50c3 52 80 24 89-6 7-12 7-24 11-38-47 1-103-4-100 44" id="ay"/><path fill="#333" d="M66-151c12-25 30-51 66-40l-6 26C45-176 58-65 38 0H6l36-190h30" id="az"/><path fill="#333" d="M17-49c1-102 45-165 103-212h30C92-210 49-145 49-46 49 4 63 43 85 75H54C30 43 18 2 17-49" id="aA"/><path fill="#333" d="M123-251c66 0 92 69 53 113C138-94 73-75 39-27h128l-5 27H-2c17-92 123-93 159-163 14-28-1-64-36-62-29 2-46 17-54 41l-30-6c13-36 37-61 86-61" id="aB"/><path fill="#333" d="M151-85c6-55-69-56-94-29H26l34-134h141l-5 27H84l-20 79c41-34 127-11 121 53C199 13 30 38 8-54l29-8C52 0 159-13 151-85" id="aC"/><path fill="#333" d="M98-137C97-35 54 29-4 75h-31C23 23 67-41 67-140c0-50-15-89-37-121h31c24 32 36 73 37 124" id="aD"/><g id="e"><use transform="matrix(0.05,0,0,0.05,0,0)" xlink:href="#ao"/><use transform="matrix(0.05,0,0,0.05,10,0)" xlink:href="#ax"/><use transform="matrix(0.05,0,0,0.05,19,0)" xlink:href="#ay"/><use transform="matrix(0.05,0,0,0.05,29,0)" xlink:href="#az"/><use transform="matrix(0.05,0,0,0.05,34.95,0)" xlink:href="#at"/><use transform="matrix(0.05,0,0,0.05,43.95,0)" xlink:href="#au"/><use transform="matrix(0.05,0,0,0.05,53.95,0)" xlink:href="#ay"/><use transform="matrix(0.05,0,0,0.05,63.95,0)" xlink:href="#az"/><use transform="matrix(0.05,0,0,0.05,69.9,0)" xlink:href="#aA"/><use transform="matrix(0.05,0,0,0.05,75.85000000000001,0)" xlink:href="#aB"/><use transform="matrix(0.05,0,0,0.05,85.85000000000001,0)" xlink:href="#aC"/><use transform="matrix(0.05,0,0,0.05,95.85000000000001,0)" xlink:href="#aC"/><use transform="matrix(0.05,0,0,0.05,105.85000000000001,0)" xlink:href="#aD"/></g><path fill="#333" d="M55-144c13 50 104 24 104 88C159 21 15 23 1-39l26-10c6 40 102 42 102-4-13-50-104-23-104-87 0-71 143-71 148-8l-29 4c-5-35-85-37-89 0" id="aE"/><path fill="#333" d="M68-162c25-46 127-43 121 31C183-60 169 1 98 4 69 5 53-11 43-31L36 0H5l52-261h31zm88 36c2-27-9-43-34-43-55 0-70 51-70 103 0 29 15 45 43 46 52 0 58-58 61-106" id="aF"/><g id="f"><use transform="matrix(0.05,0,0,0.05,0,0)" xlink:href="#aq"/><use transform="matrix(0.05,0,0,0.05,12,0)" xlink:href="#ar"/><use transform="matrix(0.05,0,0,0.05,22,0)" xlink:href="#aE"/><use transform="matrix(0.05,0,0,0.05,31,0)" xlink:href="#at"/><use transform="matrix(0.05,0,0,0.05,40,0)" xlink:href="#au"/><use transform="matrix(0.05,0,0,0.05,50,0)" xlink:href="#az"/><use transform="matrix(0.05,0,0,0.05,55.95,0)" xlink:href="#ar"/><use transform="matrix(0.05,0,0,0.05,65.95,0)" xlink:href="#an"/><use transform="matrix(0.05,0,0,0.05,69.9,0)" xlink:href="#aF"/><use transform="matrix(0.05,0,0,0.05,79.9,0)" xlink:href="#av"/><use transform="matrix(0.05,0,0,0.05,89.9,0)" xlink:href="#ao"/><use transform="matrix(0.05,0,0,0.05,99.9,0)" xlink:href="#aw"/></g><path fill="#333" d="M248-111c6-24 9-61-24-58-72 9-57 108-77 169h-31l26-142c3-37-50-30-64-10C52-115 50-51 37 0H6l36-190h30c-1 10-6 24-4 32 13-43 101-52 105 5 13-22 29-41 61-41 90 0 28 129 23 194h-31" id="aG"/><g id="g"><use transform="matrix(0.05,0,0,0.05,0,0)" xlink:href="#al"/><use transform="matrix(0.05,0,0,0.05,12.950000000000001,0)" xlink:href="#ay"/><use transform="matrix(0.05,0,0,0.05,22.950000000000003,0)" xlink:href="#ap"/><use transform="matrix(0.05,0,0,0.05,27.950000000000003,0)" xlink:href="#av"/><use transform="matrix(0.05,0,0,0.05,37.95,0)" xlink:href="#aG"/></g><path fill="#333" d="M133-28C103 26-5 8 13-77c13-62 24-115 90-117 29-1 46 15 56 35l19-102h32L160 0h-30zM45-64c-2 27 10 43 35 43 54-1 69-50 69-103 0-29-15-46-42-46-53-1-58 58-62 106" id="aH"/><g id="h"><use transform="matrix(0.05,0,0,0.05,0,0)" xlink:href="#aH"/><use transform="matrix(0.05,0,0,0.05,10,0)" xlink:href="#ay"/><use transform="matrix(0.05,0,0,0.05,20,0)" xlink:href="#ap"/><use transform="matrix(0.05,0,0,0.05,25,0)" xlink:href="#ar"/><use transform="matrix(0.05,0,0,0.05,35,0)" xlink:href="#ap"/><use transform="matrix(0.05,0,0,0.05,40,0)" xlink:href="#an"/><use transform="matrix(0.05,0,0,0.05,43.95,0)" xlink:href="#aG"/><use transform="matrix(0.05,0,0,0.05,58.900000000000006,0)" xlink:href="#ar"/></g><path fill="#333" d="M194-120c59 52 2 134-86 124-53-6-90-18-98-63l31-7c8 30 29 43 70 43 46 0 84-17 71-62-32-43-135-20-137-98-3-89 178-90 191-16l-30 9c-8-48-127-53-127 5 0 53 81 35 115 65" id="aI"/><g id="i"><use transform="matrix(0.05,0,0,0.05,0,0)" xlink:href="#aI"/><use transform="matrix(0.05,0,0,0.05,12,0)" xlink:href="#ap"/><use transform="matrix(0.05,0,0,0.05,17,0)" xlink:href="#ay"/><use transform="matrix(0.05,0,0,0.05,27,0)" xlink:href="#ap"/><use transform="matrix(0.05,0,0,0.05,32,0)" xlink:href="#av"/><use transform="matrix(0.05,0,0,0.05,42,0)" xlink:href="#aE"/></g><path fill="#333" d="M180 0L97-118 63-96 45 0H11l48-248h34L69-126c44-43 94-81 141-122h43L121-137 219 0h-39" id="aJ"/><g id="j"><use transform="matrix(0.05,0,0,0.05,0,0)" xlink:href="#aJ"/><use transform="matrix(0.05,0,0,0.05,12,0)" xlink:href="#ay"/><use transform="matrix(0.05,0,0,0.05,22,0)" xlink:href="#ap"/><use transform="matrix(0.05,0,0,0.05,27,0)" xlink:href="#ar"/><use transform="matrix(0.05,0,0,0.05,37,0)" xlink:href="#aw"/><use transform="matrix(0.05,0,0,0.05,47,0)" xlink:href="#ak"/><use transform="matrix(0.05,0,0,0.05,57,0)" xlink:href="#az"/><use transform="matrix(0.05,0,0,0.05,62.95,0)" xlink:href="#an"/><use transform="matrix(0.05,0,0,0.05,66.9,0)" xlink:href="#ar"/></g><g id="k"><use transform="matrix(0.05,0,0,0.05,0,0)" xlink:href="#aJ"/><use transform="matrix(0.05,0,0,0.05,12,0)" xlink:href="#ay"/><use transform="matrix(0.05,0,0,0.05,22,0)" xlink:href="#ap"/><use transform="matrix(0.05,0,0,0.05,27,0)" xlink:href="#ar"/><use transform="matrix(0.05,0,0,0.05,37,0)" xlink:href="#aw"/><use transform="matrix(0.05,0,0,0.05,47,0)" xlink:href="#ak"/><use transform="matrix(0.05,0,0,0.05,57,0)" xlink:href="#az"/><use transform="matrix(0.05,0,0,0.05,62.95,0)" xlink:href="#an"/><use transform="matrix(0.05,0,0,0.05,66.9,0)" xlink:href="#ar"/><use transform="matrix(0.05,0,0,0.05,76.9,0)" xlink:href="#am"/><use transform="matrix(0.05,0,0,0.05,81.9,0)" xlink:href="#al"/></g><path fill="#333" d="M125-24c46 0 70-25 89-51l25 16C214-24 183 4 123 4 8 4-5-146 60-208c32-50 158-61 191-5 5 7 9 14 11 22l-32 10c-9-28-33-43-69-43-74 0-108 51-108 125 0 46 24 75 72 75" id="aK"/><g id="l"><use transform="matrix(0.05,0,0,0.05,0,0)" xlink:href="#aJ"/><use transform="matrix(0.05,0,0,0.05,12,0)" xlink:href="#ay"/><use transform="matrix(0.05,0,0,0.05,22,0)" xlink:href="#ap"/><use transform="matrix(0.05,0,0,0.05,27,0)" xlink:href="#ar"/><use transform="matrix(0.05,0,0,0.05,37,0)" xlink:href="#aw"/><use transform="matrix(0.05,0,0,0.05,47,0)" xlink:href="#ak"/><use transform="matrix(0.05,0,0,0.05,57,0)" xlink:href="#az"/><use transform="matrix(0.05,0,0,0.05,62.95,0)" xlink:href="#an"/><use transform="matrix(0.05,0,0,0.05,66.9,0)" xlink:href="#ar"/><use transform="matrix(0.05,0,0,0.05,76.9,0)" xlink:href="#aK"/><use transform="matrix(0.05,0,0,0.05,89.85000000000001,0)" xlink:href="#ak"/><use transform="matrix(0.05,0,0,0.05,99.85000000000001,0)" xlink:href="#ao"/><use transform="matrix(0.05,0,0,0.05,109.85000000000001,0)" xlink:href="#ao"/></g><g id="m"><use transform="matrix(0.05,0,0,0.05,0,0)" xlink:href="#am"/><use transform="matrix(0.05,0,0,0.05,5,0)" xlink:href="#al"/></g><path fill="#333" d="M11 0l48-248h34L50-27h125l-5 27H11" id="aL"/><g id="n"><use transform="matrix(0.05,0,0,0.05,0,0)" xlink:href="#aL"/><use transform="matrix(0.05,0,0,0.05,10,0)" xlink:href="#ak"/><use transform="matrix(0.05,0,0,0.05,20,0)" xlink:href="#aw"/></g><path fill="#333" d="M198-190L69 30C53 58 25 83-20 72c4-11-1-27 19-22 33-1 43-29 59-52L20-190h32L79-34l84-156h35" id="aM"/><g id="o"><use transform="matrix(0.05,0,0,0.05,0,0)" xlink:href="#aJ"/><use transform="matrix(0.05,0,0,0.05,12,0)" xlink:href="#ar"/><use transform="matrix(0.05,0,0,0.05,22,0)" xlink:href="#aM"/><use transform="matrix(0.05,0,0,0.05,31,0)" xlink:href="#am"/><use transform="matrix(0.05,0,0,0.05,36,0)" xlink:href="#al"/></g><path fill="#333" d="M187 0l-14-72H61L19 0h-37l149-248h38L221 0h-34zm-19-99l-22-123L76-99h92" id="aN"/><path fill="#333" d="M127 0L80-88 50-66 37 0H6l51-261h31L57-100l99-90h39l-93 82L161 0h-34" id="aO"/><g id="p"><use transform="matrix(0.05,0,0,0.05,0,0)" xlink:href="#aN"/><use transform="matrix(0.05,0,0,0.05,12,0)" xlink:href="#aO"/><use transform="matrix(0.05,0,0,0.05,21,0)" xlink:href="#ap"/><use transform="matrix(0.05,0,0,0.05,26,0)" xlink:href="#an"/><use transform="matrix(0.05,0,0,0.05,29.950000000000003,0)" xlink:href="#ak"/><use transform="matrix(0.05,0,0,0.05,39.95,0)" xlink:href="#ao"/></g><path fill="#333" d="M6 0l50-261h32L37 0H6" id="aP"/><g id="q"><use transform="matrix(0.05,0,0,0.05,0,0)" xlink:href="#aj"/><use transform="matrix(0.05,0,0,0.05,9.3,0)" xlink:href="#ay"/><use transform="matrix(0.05,0,0,0.05,19.3,0)" xlink:href="#aF"/><use transform="matrix(0.05,0,0,0.05,29.3,0)" xlink:href="#ar"/><use transform="matrix(0.05,0,0,0.05,39.3,0)" xlink:href="#aP"/><use transform="matrix(0.05,0,0,0.05,43.25,0)" xlink:href="#aP"/><use transform="matrix(0.05,0,0,0.05,47.2,0)" xlink:href="#ar"/></g><path fill="#333" d="M29-66c0 49 71 55 82 11 13-52 22-111 33-165H93l5-28h85L149-74C151 11 7 37-1-60" id="aQ"/><path fill="#333" d="M20-101c0-91 52-143 145-150 126-9 127 168 53 223-23 17-55 32-93 32C57 4 20-33 20-101zm216-33c5-57-18-91-73-90-77 1-110 51-110 125 0 49 23 75 73 75 72-1 104-45 110-110" id="aR"/><path fill="#333" d="M173 0L80-213 41 0H11l48-248h37l94 214 40-214h30L212 0h-39" id="aS"/><path fill="#333" d="M-28 44V31h207v13H-28" id="aT"/><g id="r"><use transform="matrix(0.05,0,0,0.05,0,0)" xlink:href="#al"/><use transform="matrix(0.05,0,0,0.05,12.950000000000001,0)" xlink:href="#ay"/><use transform="matrix(0.05,0,0,0.05,22.950000000000003,0)" xlink:href="#ap"/><use transform="matrix(0.05,0,0,0.05,27.950000000000003,0)" xlink:href="#ay"/><use transform="matrix(0.05,0,0,0.05,37.95,0)" xlink:href="#aQ"/><use transform="matrix(0.05,0,0,0.05,46.95,0)" xlink:href="#aI"/><use transform="matrix(0.05,0,0,0.05,58.95,0)" xlink:href="#aR"/><use transform="matrix(0.05,0,0,0.05,72.95,0)" xlink:href="#aS"/><use transform="matrix(0.05,0,0,0.05,85.9,0)" xlink:href="#aT"/><use transform="matrix(0.05,0,0,0.05,95.9,0)" xlink:href="#aR"/><use transform="matrix(0.05,0,0,0.05,109.9,0)" xlink:href="#aP"/><use transform="matrix(0.05,0,0,0.05,113.85000000000001,0)" xlink:href="#aH"/></g><path fill="#333" d="M188 0h-37l-8-164L71 0H34L18-190h31l8 164 75-164h34l8 164 74-164h31" id="aU"/><g id="s"><use transform="matrix(0.05,0,0,0.05,0,0)" xlink:href="#al"/><use transform="matrix(0.05,0,0,0.05,12.950000000000001,0)" xlink:href="#ay"/><use transform="matrix(0.05,0,0,0.05,22.950000000000003,0)" xlink:href="#ap"/><use transform="matrix(0.05,0,0,0.05,27.950000000000003,0)" xlink:href="#ay"/><use transform="matrix(0.05,0,0,0.05,37.95,0)" xlink:href="#aQ"/><use transform="matrix(0.05,0,0,0.05,46.95,0)" xlink:href="#aI"/><use transform="matrix(0.05,0,0,0.05,58.95,0)" xlink:href="#aR"/><use transform="matrix(0.05,0,0,0.05,72.95,0)" xlink:href="#aS"/><use transform="matrix(0.05,0,0,0.05,85.9,0)" xlink:href="#aT"/><use transform="matrix(0.05,0,0,0.05,95.9,0)" xlink:href="#aS"/><use transform="matrix(0.05,0,0,0.05,108.85000000000001,0)" xlink:href="#ar"/><use transform="matrix(0.05,0,0,0.05,118.85000000000001,0)" xlink:href="#aU"/></g><path fill="#333" d="M205 0l-28-72H64L36 0H1l101-248h38L239 0h-34zm-38-99l-47-123c-12 45-31 82-46 123h93" id="aV"/><path fill="#333" d="M143 0L79-87 56-68V0H24v-261h32v163l83-92h37l-77 82L181 0h-38" id="aW"/><path fill="#333" d="M59-47c-2 24 18 29 38 22v24C64 9 27 4 27-40v-127H5v-23h24l9-43h21v43h35v23H59v120" id="aX"/><path fill="#333" d="M24-231v-30h32v30H24zM24 0v-190h32V0H24" id="aY"/><path fill="#333" d="M100-194c62-1 85 37 85 99 1 63-27 99-86 99S16-35 15-95c0-66 28-99 85-99zM99-20c44 1 53-31 53-75 0-43-8-75-51-75s-53 32-53 75 10 74 51 75" id="aZ"/><path fill="#333" d="M117-194c89-4 53 116 60 194h-32v-121c0-31-8-49-39-48C34-167 62-67 57 0H25l-1-190h30c1 10-1 24 2 32 11-22 29-35 61-36" id="ba"/><path fill="#333" d="M100-194c63 0 86 42 84 106H49c0 40 14 67 53 68 26 1 43-12 49-29l28 8c-11 28-37 45-77 45C44 4 14-33 15-96c1-61 26-98 85-98zm52 81c6-60-76-77-97-28-3 7-6 17-6 28h103" id="bb"/><g id="t"><use transform="matrix(0.040362234249531274,0,0,0.040362234249531274,0,0)" xlink:href="#aV"/><use transform="matrix(0.040362234249531274,0,0,0.040362234249531274,9.686936219887507,0)" xlink:href="#aW"/><use transform="matrix(0.040362234249531274,0,0,0.040362234249531274,16.952138384803135,0)" xlink:href="#aX"/><use transform="matrix(0.040362234249531274,0,0,0.040362234249531274,20.988361809756263,0)" xlink:href="#aY"/><use transform="matrix(0.040362234249531274,0,0,0.040362234249531274,24.176978315469235,0)" xlink:href="#aZ"/><use transform="matrix(0.040362234249531274,0,0,0.040362234249531274,32.24942516537549,0)" xlink:href="#ba"/><use transform="matrix(0.040362234249531274,0,0,0.040362234249531274,40.32187201528175,0)" xlink:href="#bb"/><use transform="matrix(0.040362234249531274,0,0,0.040362234249531274,48.394318865188005,0)" xlink:href="#ba"/></g><path fill="#333" d="M87 75C49 33 22-17 22-94c0-76 28-126 65-167h31c-38 41-64 92-64 168S80 34 118 75H87" id="bc"/><path fill="#333" d="M30 0v-248h33v221h125V0H30" id="bd"/><path fill="#333" d="M177-190C167-65 218 103 67 71c-23-6-38-20-44-43l32-5c15 47 100 32 89-28v-30C133-14 115 1 83 1 29 1 15-40 15-95c0-56 16-97 71-98 29-1 48 16 59 35 1-10 0-23 2-32h30zM94-22c36 0 50-32 50-73 0-42-14-75-50-75-39 0-46 34-46 75s6 73 46 73" id="be"/><path fill="#333" d="M85-194c31 0 48 13 60 33l-1-100h32l1 261h-30c-2-10 0-23-3-31C134-8 116 4 85 4 32 4 16-35 15-94c0-66 23-100 70-100zm9 24c-40 0-46 34-46 75 0 40 6 74 45 74 42 0 51-32 51-76 0-42-9-74-50-73" id="bf"/><path fill="#333" d="M33-261c38 41 65 92 65 168S71 34 33 75H2C39 34 66-17 66-93S39-220 2-261h31" id="bg"/><g id="u"><use transform="matrix(0.040362234249531274,0,0,0.040362234249531274,0,0)" xlink:href="#bc"/><use transform="matrix(0.040362234249531274,0,0,0.040362234249531274,4.8031058756942215,0)" xlink:href="#bd"/><use transform="matrix(0.040362234249531274,0,0,0.040362234249531274,12.875552725600476,0)" xlink:href="#bb"/><use transform="matrix(0.040362234249531274,0,0,0.040362234249531274,20.94799957550673,0)" xlink:href="#be"/><use transform="matrix(0.040362234249531274,0,0,0.040362234249531274,29.020446425412985,0)" xlink:href="#bb"/><use transform="matrix(0.040362234249531274,0,0,0.040362234249531274,37.09289327531924,0)" xlink:href="#ba"/><use transform="matrix(0.040362234249531274,0,0,0.040362234249531274,45.1653401252255,0)" xlink:href="#bf"/><use transform="matrix(0.040362234249531274,0,0,0.040362234249531274,53.23778697513175,0)" xlink:href="#bb"/><use transform="matrix(0.040362234249531274,0,0,0.040362234249531274,61.31023382503802,0)" xlink:href="#bg"/></g><path d="M27 0v-27h64v-190l-56 39v-29l58-41h29v221h61V0H27" id="bh"/><use transform="matrix(0.03765432098765432,0,0,0.03765432098765432,0,0)" xlink:href="#bh" id="v"/><path d="M18-150v-26h174v26H18zm0 90v-26h174v26H18" id="bi"/><use transform="matrix(0.03765432098765432,0,0,0.03765432098765432,0,0)" xlink:href="#bi" id="w"/><path d="M85-194c31 0 48 13 60 33l-1-100h32l1 261h-30c-2-10 0-23-3-31C134-8 116 4 85 4 32 4 16-35 15-94c0-66 23-100 70-100zm9 24c-40 0-46 34-46 75 0 40 6 74 45 74 42 0 51-32 51-76 0-42-9-74-50-73" id="bj"/><path d="M100-194c63 0 86 42 84 106H49c0 40 14 67 53 68 26 1 43-12 49-29l28 8c-11 28-37 45-77 45C44 4 14-33 15-96c1-61 26-98 85-98zm52 81c6-60-76-77-97-28-3 7-6 17-6 28h103" id="bk"/><path d="M24 0v-261h32V0H24" id="bl"/><path d="M59-47c-2 24 18 29 38 22v24C64 9 27 4 27-40v-127H5v-23h24l9-43h21v43h35v23H59v120" id="bm"/><g id="x"><use transform="matrix(0.03765432098765432,0,0,0.03765432098765432,0,0)" xlink:href="#bj"/><use transform="matrix(0.03765432098765432,0,0,0.03765432098765432,7.530864197530864,0)" xlink:href="#bk"/><use transform="matrix(0.03765432098765432,0,0,0.03765432098765432,15.061728395061728,0)" xlink:href="#bl"/><use transform="matrix(0.03765432098765432,0,0,0.03765432098765432,18.03641975308642,0)" xlink:href="#bk"/><use transform="matrix(0.03765432098765432,0,0,0.03765432098765432,25.567283950617284,0)" xlink:href="#bm"/><use transform="matrix(0.03765432098765432,0,0,0.03765432098765432,29.332716049382718,0)" xlink:href="#bk"/><use transform="matrix(0.03765432098765432,0,0,0.03765432098765432,36.863580246913585,0)" xlink:href="#bj"/></g><path d="M101-251c82-7 93 87 43 132L82-64C71-53 59-42 53-27h129V0H18c2-99 128-94 128-182 0-28-16-43-45-43s-46 15-49 41l-32-3c6-41 34-60 81-64" id="bn"/><use transform="matrix(0.03765432098765432,0,0,0.03765432098765432,0,0)" xlink:href="#bn" id="y"/><path d="M141-36C126-15 110 5 73 4 37 3 15-17 15-53c-1-64 63-63 125-63 3-35-9-54-41-54-24 1-41 7-42 31l-33-3c5-37 33-52 76-52 45 0 72 20 72 64v82c-1 20 7 32 28 27v20c-31 9-61-2-59-35zM48-53c0 20 12 33 32 33 41-3 63-29 60-74-43 2-92-5-92 41" id="bo"/><g id="z"><use transform="matrix(0.03765432098765432,0,0,0.03765432098765432,0,0)" xlink:href="#bo"/><use transform="matrix(0.03765432098765432,0,0,0.03765432098765432,7.530864197530864,0)" xlink:href="#bj"/><use transform="matrix(0.03765432098765432,0,0,0.03765432098765432,15.061728395061728,0)" xlink:href="#bj"/><use transform="matrix(0.03765432098765432,0,0,0.03765432098765432,22.59259259259259,0)" xlink:href="#bk"/><use transform="matrix(0.03765432098765432,0,0,0.03765432098765432,30.123456790123456,0)" xlink:href="#bj"/></g><path d="M126-127c33 6 58 20 58 59 0 88-139 92-164 29-3-8-5-16-6-25l32-3c6 27 21 44 54 44 32 0 52-15 52-46 0-38-36-46-79-43v-28c39 1 72-4 72-42 0-27-17-43-46-43-28 0-47 15-49 41l-32-3c6-42 35-63 81-64 48-1 79 21 79 65 0 36-21 52-52 59" id="bp"/><use transform="matrix(0.03765432098765432,0,0,0.03765432098765432,0,0)" xlink:href="#bp" id="A"/><path d="M210-169c-67 3-38 105-44 169h-31v-121c0-29-5-50-35-48C34-165 62-65 56 0H25l-1-190h30c1 10-1 24 2 32 10-44 99-50 107 0 11-21 27-35 58-36 85-2 47 119 55 194h-31v-121c0-29-5-49-35-48" id="bq"/><path d="M100-194c62-1 85 37 85 99 1 63-27 99-86 99S16-35 15-95c0-66 28-99 85-99zM99-20c44 1 53-31 53-75 0-43-8-75-51-75s-53 32-53 75 10 74 51 75" id="br"/><path d="M24-231v-30h32v30H24zM24 0v-190h32V0H24" id="bs"/><path d="M101-234c-31-9-42 10-38 44h38v23H63V0H32v-167H5v-23h27c-7-52 17-82 69-68v24" id="bt"/><g id="B"><use transform="matrix(0.03765432098765432,0,0,0.03765432098765432,0,0)" xlink:href="#bq"/><use transform="matrix(0.03765432098765432,0,0,0.03765432098765432,11.258641975308642,0)" xlink:href="#br"/><use transform="matrix(0.03765432098765432,0,0,0.03765432098765432,18.789506172839506,0)" xlink:href="#bj"/><use transform="matrix(0.03765432098765432,0,0,0.03765432098765432,26.32037037037037,0)" xlink:href="#bs"/><use transform="matrix(0.03765432098765432,0,0,0.03765432098765432,29.295061728395062,0)" xlink:href="#bt"/><use transform="matrix(0.03765432098765432,0,0,0.03765432098765432,33.06049382716049,0)" xlink:href="#bs"/><use transform="matrix(0.03765432098765432,0,0,0.03765432098765432,36.035185185185185,0)" xlink:href="#bk"/><use transform="matrix(0.03765432098765432,0,0,0.03765432098765432,43.566049382716045,0)" xlink:href="#bj"/></g><path fill="#333" d="M127-220V0H93v-220H8v-28h204v28h-85" id="bu"/><path fill="#333" d="M141-36C126-15 110 5 73 4 37 3 15-17 15-53c-1-64 63-63 125-63 3-35-9-54-41-54-24 1-41 7-42 31l-33-3c5-37 33-52 76-52 45 0 72 20 72 64v82c-1 20 7 32 28 27v20c-31 9-61-2-59-35zM48-53c0 20 12 33 32 33 41-3 63-29 60-74-43 2-92-5-92 41" id="bv"/><path fill="#333" d="M115-194c53 0 69 39 70 98 0 66-23 100-70 100C84 3 66-7 56-30L54 0H23l1-261h32v101c10-23 28-34 59-34zm-8 174c40 0 45-34 45-75 0-40-5-75-45-74-42 0-51 32-51 76 0 43 10 73 51 73" id="bw"/><path fill="#333" d="M24 0v-261h32V0H24" id="bx"/><g id="C"><use transform="matrix(0.043827160493827164,0,0,0.043827160493827164,0,0)" xlink:href="#bu"/><use transform="matrix(0.043827160493827164,0,0,0.043827160493827164,7.845061728395061,0)" xlink:href="#bv"/><use transform="matrix(0.043827160493827164,0,0,0.043827160493827164,16.610493827160493,0)" xlink:href="#bw"/><use transform="matrix(0.043827160493827164,0,0,0.043827160493827164,25.375925925925927,0)" xlink:href="#bb"/><use transform="matrix(0.043827160493827164,0,0,0.043827160493827164,34.14135802469136,0)" xlink:href="#bx"/><use transform="matrix(0.043827160493827164,0,0,0.043827160493827164,37.6037037037037,0)" xlink:href="#bx"/><use transform="matrix(0.043827160493827164,0,0,0.043827160493827164,41.066049382716045,0)" xlink:href="#bb"/></g><g id="D"><use transform="matrix(0.040362234249531274,0,0,0.040362234249531274,0,0)" xlink:href="#bc"/><use transform="matrix(0.040362234249531274,0,0,0.040362234249531274,4.8031058756942215,0)" xlink:href="#bd"/><use transform="matrix(0.040362234249531274,0,0,0.040362234249531274,12.875552725600476,0)" xlink:href="#bb"/><use transform="matrix(0.040362234249531274,0,0,0.040362234249531274,20.94799957550673,0)" xlink:href="#be"/><use transform="matrix(0.040362234249531274,0,0,0.040362234249531274,29.020446425412985,0)" xlink:href="#bb"/><use transform="matrix(0.040362234249531274,0,0,0.040362234249531274,37.09289327531924,0)" xlink:href="#ba"/><use transform="matrix(0.040362234249531274,0,0,0.040362234249531274,45.1653401252255,0)" xlink:href="#bf"/><use transform="matrix(0.040362234249531274,0,0,0.040362234249531274,53.23778697513175,0)" xlink:href="#bb"/><use transform="matrix(0.040362234249531274,0,0,0.040362234249531274,61.31023382503802,0)" xlink:href="#bg"/></g><g id="E"><use transform="matrix(0.03765432098765432,0,0,0.03765432098765432,0,0)" xlink:href="#aj"/><use transform="matrix(0.03765432098765432,0,0,0.03765432098765432,7.003703703703703,0)" xlink:href="#ak"/><use transform="matrix(0.03765432098765432,0,0,0.03765432098765432,14.534567901234567,0)" xlink:href="#al"/><use transform="matrix(0.03765432098765432,0,0,0.03765432098765432,24.287037037037035,0)" xlink:href="#ak"/></g><g id="F"><use transform="matrix(0.03765432098765432,0,0,0.03765432098765432,0,0)" xlink:href="#aJ"/><use transform="matrix(0.03765432098765432,0,0,0.03765432098765432,9.037037037037036,0)" xlink:href="#ay"/><use transform="matrix(0.03765432098765432,0,0,0.03765432098765432,16.5679012345679,0)" xlink:href="#ap"/><use transform="matrix(0.03765432098765432,0,0,0.03765432098765432,20.33333333333333,0)" xlink:href="#ar"/><use transform="matrix(0.03765432098765432,0,0,0.03765432098765432,27.86419753086419,0)" xlink:href="#aw"/><use transform="matrix(0.03765432098765432,0,0,0.03765432098765432,35.395061728395056,0)" xlink:href="#ak"/><use transform="matrix(0.03765432098765432,0,0,0.03765432098765432,42.925925925925924,0)" xlink:href="#az"/><use transform="matrix(0.03765432098765432,0,0,0.03765432098765432,47.40679012345679,0)" xlink:href="#an"/><use transform="matrix(0.03765432098765432,0,0,0.03765432098765432,50.38148148148148,0)" xlink:href="#ar"/></g><g id="G"><use transform="matrix(0.03765432098765432,0,0,0.03765432098765432,0,0)" xlink:href="#aJ"/><use transform="matrix(0.03765432098765432,0,0,0.03765432098765432,9.037037037037036,0)" xlink:href="#ay"/><use transform="matrix(0.03765432098765432,0,0,0.03765432098765432,16.5679012345679,0)" xlink:href="#ap"/><use transform="matrix(0.03765432098765432,0,0,0.03765432098765432,20.33333333333333,0)" xlink:href="#ar"/><use transform="matrix(0.03765432098765432,0,0,0.03765432098765432,27.86419753086419,0)" xlink:href="#aw"/><use transform="matrix(0.03765432098765432,0,0,0.03765432098765432,35.395061728395056,0)" xlink:href="#ak"/><use transform="matrix(0.03765432098765432,0,0,0.03765432098765432,42.925925925925924,0)" xlink:href="#az"/><use transform="matrix(0.03765432098765432,0,0,0.03765432098765432,47.40679012345679,0)" xlink:href="#an"/><use transform="matrix(0.03765432098765432,0,0,0.03765432098765432,50.38148148148148,0)" xlink:href="#ar"/><use transform="matrix(0.03765432098765432,0,0,0.03765432098765432,57.91234567901235,0)" xlink:href="#aK"/><use transform="matrix(0.03765432098765432,0,0,0.03765432098765432,67.66481481481482,0)" xlink:href="#ak"/><use transform="matrix(0.03765432098765432,0,0,0.03765432098765432,75.19567901234568,0)" xlink:href="#ao"/><use transform="matrix(0.03765432098765432,0,0,0.03765432098765432,82.72654320987654,0)" xlink:href="#ao"/></g><g id="H"><use transform="matrix(0.05,0,0,0.05,0,0)" xlink:href="#av"/><use transform="matrix(0.05,0,0,0.05,10,0)" xlink:href="#aE"/><use transform="matrix(0.05,0,0,0.05,19,0)" xlink:href="#ar"/><use transform="matrix(0.05,0,0,0.05,29,0)" xlink:href="#az"/><use transform="matrix(0.05,0,0,0.05,34.95,0)" xlink:href="#aE"/></g><g id="I"><use transform="matrix(0.05,0,0,0.05,0,0)" xlink:href="#av"/><use transform="matrix(0.05,0,0,0.05,10,0)" xlink:href="#aE"/><use transform="matrix(0.05,0,0,0.05,19,0)" xlink:href="#ar"/><use transform="matrix(0.05,0,0,0.05,29,0)" xlink:href="#az"/><use transform="matrix(0.05,0,0,0.05,34.95,0)" xlink:href="#ao"/><use transform="matrix(0.05,0,0,0.05,44.95,0)" xlink:href="#ay"/><use transform="matrix(0.05,0,0,0.05,54.95,0)" xlink:href="#aG"/><use transform="matrix(0.05,0,0,0.05,69.9,0)" xlink:href="#ar"/></g><g id="J"><use transform="matrix(0.05,0,0,0.05,0,0)" xlink:href="#aE"/><use transform="matrix(0.05,0,0,0.05,9,0)" xlink:href="#ap"/><use transform="matrix(0.05,0,0,0.05,14,0)" xlink:href="#ay"/><use transform="matrix(0.05,0,0,0.05,24,0)" xlink:href="#ap"/><use transform="matrix(0.05,0,0,0.05,29,0)" xlink:href="#av"/><use transform="matrix(0.05,0,0,0.05,39,0)" xlink:href="#aE"/></g><g id="K"><use transform="matrix(0.05,0,0,0.05,0,0)" xlink:href="#aE"/><use transform="matrix(0.05,0,0,0.05,9,0)" xlink:href="#ap"/><use transform="matrix(0.05,0,0,0.05,14,0)" xlink:href="#ay"/><use transform="matrix(0.05,0,0,0.05,24,0)" xlink:href="#ap"/><use transform="matrix(0.05,0,0,0.05,29,0)" xlink:href="#av"/><use transform="matrix(0.05,0,0,0.05,39,0)" xlink:href="#aE"/><use transform="matrix(0.05,0,0,0.05,48,0)" xlink:href="#aT"/><use transform="matrix(0.05,0,0,0.05,58,0)" xlink:href="#aG"/><use transform="matrix(0.05,0,0,0.05,72.95,0)" xlink:href="#ar"/><use transform="matrix(0.05,0,0,0.05,82.95,0)" xlink:href="#aE"/><use transform="matrix(0.05,0,0,0.05,91.95,0)" xlink:href="#aE"/><use transform="matrix(0.05,0,0,0.05,100.95,0)" xlink:href="#ay"/><use transform="matrix(0.05,0,0,0.05,110.95,0)" xlink:href="#aw"/><use transform="matrix(0.05,0,0,0.05,120.95,0)" xlink:href="#ar"/></g><g id="L"><use transform="matrix(0.05,0,0,0.05,0,0)" xlink:href="#ay"/><use transform="matrix(0.05,0,0,0.05,10,0)" xlink:href="#at"/><use transform="matrix(0.05,0,0,0.05,19,0)" xlink:href="#ap"/><use transform="matrix(0.05,0,0,0.05,24,0)" xlink:href="#an"/><use transform="matrix(0.05,0,0,0.05,27.950000000000003,0)" xlink:href="#ax"/><use transform="matrix(0.05,0,0,0.05,36.95,0)" xlink:href="#ar"/></g><path fill="#333" d="M9 0l6-27h63l36-188-63 39 6-31 66-41h29L110-27h60l-5 27H9" id="by"/><g id="M"><use transform="matrix(0.05,0,0,0.05,0,0)" xlink:href="#ap"/><use transform="matrix(0.05,0,0,0.05,5,0)" xlink:href="#an"/><use transform="matrix(0.05,0,0,0.05,8.95,0)" xlink:href="#ao"/><use transform="matrix(0.05,0,0,0.05,18.95,0)" xlink:href="#aM"/><use transform="matrix(0.05,0,0,0.05,27.950000000000003,0)" xlink:href="#an"/><use transform="matrix(0.05,0,0,0.05,31.899999999999995,0)" xlink:href="#ao"/><use transform="matrix(0.05,0,0,0.05,41.9,0)" xlink:href="#ap"/><use transform="matrix(0.05,0,0,0.05,46.9,0)" xlink:href="#aA"/><use transform="matrix(0.05,0,0,0.05,52.85,0)" xlink:href="#by"/><use transform="matrix(0.05,0,0,0.05,62.85,0)" xlink:href="#aD"/></g><g id="N"><use transform="matrix(0.05,0,0,0.05,0,0)" xlink:href="#aP"/><use transform="matrix(0.05,0,0,0.05,3.95,0)" xlink:href="#ay"/><use transform="matrix(0.05,0,0,0.05,13.949999999999998,0)" xlink:href="#aE"/><use transform="matrix(0.05,0,0,0.05,22.95,0)" xlink:href="#ap"/><use transform="matrix(0.05,0,0,0.05,27.950000000000003,0)" xlink:href="#aT"/><use transform="matrix(0.05,0,0,0.05,37.95,0)" xlink:href="#ay"/><use transform="matrix(0.05,0,0,0.05,47.95,0)" xlink:href="#at"/><use transform="matrix(0.05,0,0,0.05,56.95,0)" xlink:href="#ap"/><use transform="matrix(0.05,0,0,0.05,61.95,0)" xlink:href="#an"/><use transform="matrix(0.05,0,0,0.05,65.9,0)" xlink:href="#ax"/><use transform="matrix(0.05,0,0,0.05,74.9,0)" xlink:href="#ar"/></g><g id="O"><use transform="matrix(0.05,0,0,0.05,0,0)" xlink:href="#at"/><use transform="matrix(0.05,0,0,0.05,9,0)" xlink:href="#az"/><use transform="matrix(0.05,0,0,0.05,14.949999999999998,0)" xlink:href="#ar"/><use transform="matrix(0.05,0,0,0.05,24.95,0)" xlink:href="#ay"/><use transform="matrix(0.05,0,0,0.05,34.95,0)" xlink:href="#ap"/><use transform="matrix(0.05,0,0,0.05,39.95,0)" xlink:href="#ar"/><use transform="matrix(0.05,0,0,0.05,49.95,0)" xlink:href="#aH"/><use transform="matrix(0.05,0,0,0.05,59.95,0)" xlink:href="#aT"/><use transform="matrix(0.05,0,0,0.05,69.95,0)" xlink:href="#ay"/><use transform="matrix(0.05,0,0,0.05,79.95,0)" xlink:href="#ap"/></g><path fill="#333" d="M67-162c32-53 139-36 121 50C175-51 163 2 97 4 68 4 52-11 42-31 38 6 28 39 22 75H-9l50-265h29c-1 10 0 20-3 28zm89 36c0-26-10-43-35-43-54 0-67 50-69 103-1 29 14 45 42 46 53 0 62-58 62-106" id="bz"/><g id="P"><use transform="matrix(0.05,0,0,0.05,0,0)" xlink:href="#av"/><use transform="matrix(0.05,0,0,0.05,10,0)" xlink:href="#bz"/><use transform="matrix(0.05,0,0,0.05,20,0)" xlink:href="#aH"/><use transform="matrix(0.05,0,0,0.05,30,0)" xlink:href="#ay"/><use transform="matrix(0.05,0,0,0.05,40,0)" xlink:href="#ap"/><use transform="matrix(0.05,0,0,0.05,45,0)" xlink:href="#ar"/><use transform="matrix(0.05,0,0,0.05,55,0)" xlink:href="#aH"/><use transform="matrix(0.05,0,0,0.05,65,0)" xlink:href="#aT"/><use transform="matrix(0.05,0,0,0.05,75,0)" xlink:href="#ay"/><use transform="matrix(0.05,0,0,0.05,85,0)" xlink:href="#ap"/></g><g id="Q"><use transform="matrix(0.05,0,0,0.05,0,0)" xlink:href="#aH"/><use transform="matrix(0.05,0,0,0.05,10,0)" xlink:href="#ar"/><use transform="matrix(0.05,0,0,0.05,20,0)" xlink:href="#aP"/><use transform="matrix(0.05,0,0,0.05,23.95,0)" xlink:href="#ar"/><use transform="matrix(0.05,0,0,0.05,33.95,0)" xlink:href="#ap"/><use transform="matrix(0.05,0,0,0.05,38.95,0)" xlink:href="#ar"/><use transform="matrix(0.05,0,0,0.05,48.95,0)" xlink:href="#aH"/><use transform="matrix(0.05,0,0,0.05,58.95,0)" xlink:href="#aT"/><use transform="matrix(0.05,0,0,0.05,68.95,0)" xlink:href="#ay"/><use transform="matrix(0.05,0,0,0.05,78.95,0)" xlink:href="#ap"/></g><g id="R"><use transform="matrix(0.05,0,0,0.05,0,0)" xlink:href="#ay"/><use transform="matrix(0.05,0,0,0.05,10,0)" xlink:href="#av"/><use transform="matrix(0.05,0,0,0.05,20,0)" xlink:href="#ap"/><use transform="matrix(0.05,0,0,0.05,25,0)" xlink:href="#au"/><use transform="matrix(0.05,0,0,0.05,35,0)" xlink:href="#aT"/><use transform="matrix(0.05,0,0,0.05,45,0)" xlink:href="#aw"/><use transform="matrix(0.05,0,0,0.05,55,0)" xlink:href="#az"/><use transform="matrix(0.05,0,0,0.05,60.95,0)" xlink:href="#ak"/><use transform="matrix(0.05,0,0,0.05,70.95,0)" xlink:href="#av"/><use transform="matrix(0.05,0,0,0.05,80.95,0)" xlink:href="#bz"/><use transform="matrix(0.05,0,0,0.05,90.95,0)" xlink:href="#aE"/><use transform="matrix(0.05,0,0,0.05,99.95,0)" xlink:href="#aT"/><use transform="matrix(0.05,0,0,0.05,109.95,0)" xlink:href="#av"/><use transform="matrix(0.05,0,0,0.05,119.95,0)" xlink:href="#aE"/><use transform="matrix(0.05,0,0,0.05,128.95,0)" xlink:href="#ar"/><use transform="matrix(0.05,0,0,0.05,138.95,0)" xlink:href="#az"/><use transform="matrix(0.05,0,0,0.05,144.89999999999998,0)" xlink:href="#aE"/></g><g id="S"><use transform="matrix(0.05,0,0,0.05,0,0)" xlink:href="#av"/><use transform="matrix(0.05,0,0,0.05,10,0)" xlink:href="#aE"/><use transform="matrix(0.05,0,0,0.05,19,0)" xlink:href="#ar"/><use transform="matrix(0.05,0,0,0.05,29,0)" xlink:href="#az"/><use transform="matrix(0.05,0,0,0.05,34.95,0)" xlink:href="#aT"/><use transform="matrix(0.05,0,0,0.05,44.95,0)" xlink:href="#an"/><use transform="matrix(0.05,0,0,0.05,48.900000000000006,0)" xlink:href="#aH"/></g><g id="T"><use transform="matrix(0.05,0,0,0.05,0,0)" xlink:href="#aw"/><use transform="matrix(0.05,0,0,0.05,10,0)" xlink:href="#az"/><use transform="matrix(0.05,0,0,0.05,15.949999999999998,0)" xlink:href="#ak"/><use transform="matrix(0.05,0,0,0.05,25.950000000000003,0)" xlink:href="#av"/><use transform="matrix(0.05,0,0,0.05,35.95,0)" xlink:href="#bz"/></g><g id="U"><use transform="matrix(0.05,0,0,0.05,0,0)" xlink:href="#ay"/><use transform="matrix(0.05,0,0,0.05,10,0)" xlink:href="#av"/><use transform="matrix(0.05,0,0,0.05,20,0)" xlink:href="#ap"/><use transform="matrix(0.05,0,0,0.05,25,0)" xlink:href="#au"/><use transform="matrix(0.05,0,0,0.05,35,0)" xlink:href="#aT"/><use transform="matrix(0.05,0,0,0.05,45,0)" xlink:href="#bz"/><use transform="matrix(0.05,0,0,0.05,55,0)" xlink:href="#ar"/><use transform="matrix(0.05,0,0,0.05,65,0)" xlink:href="#az"/><use transform="matrix(0.05,0,0,0.05,70.95,0)" xlink:href="#aG"/><use transform="matrix(0.05,0,0,0.05,85.9,0)" xlink:href="#an"/><use transform="matrix(0.05,0,0,0.05,89.85000000000001,0)" xlink:href="#aE"/><use transform="matrix(0.05,0,0,0.05,98.85000000000001,0)" xlink:href="#aE"/><use transform="matrix(0.05,0,0,0.05,107.85000000000001,0)" xlink:href="#an"/><use transform="matrix(0.05,0,0,0.05,111.80000000000001,0)" xlink:href="#ak"/><use transform="matrix(0.05,0,0,0.05,121.80000000000001,0)" xlink:href="#ao"/><use transform="matrix(0.05,0,0,0.05,131.8,0)" xlink:href="#aE"/><use transform="matrix(0.05,0,0,0.05,140.8,0)" xlink:href="#aT"/><use transform="matrix(0.05,0,0,0.05,150.8,0)" xlink:href="#av"/><use transform="matrix(0.05,0,0,0.05,160.8,0)" xlink:href="#aE"/><use transform="matrix(0.05,0,0,0.05,169.8,0)" xlink:href="#ar"/><use transform="matrix(0.05,0,0,0.05,179.8,0)" xlink:href="#az"/><use transform="matrix(0.05,0,0,0.05,185.75,0)" xlink:href="#aE"/></g><g id="V"><use transform="matrix(0.05,0,0,0.05,0,0)" xlink:href="#bz"/><use transform="matrix(0.05,0,0,0.05,10,0)" xlink:href="#ar"/><use transform="matrix(0.05,0,0,0.05,20,0)" xlink:href="#az"/><use transform="matrix(0.05,0,0,0.05,25.950000000000003,0)" xlink:href="#aG"/><use transform="matrix(0.05,0,0,0.05,40.9,0)" xlink:href="#an"/><use transform="matrix(0.05,0,0,0.05,44.85,0)" xlink:href="#aE"/><use transform="matrix(0.05,0,0,0.05,53.85,0)" xlink:href="#aE"/><use transform="matrix(0.05,0,0,0.05,62.85,0)" xlink:href="#ak"/><use transform="matrix(0.05,0,0,0.05,72.85,0)" xlink:href="#ao"/></g><g id="W"><use transform="matrix(0.05,0,0,0.05,0,0)" xlink:href="#ay"/><use transform="matrix(0.05,0,0,0.05,10,0)" xlink:href="#av"/><use transform="matrix(0.05,0,0,0.05,20,0)" xlink:href="#ap"/><use transform="matrix(0.05,0,0,0.05,25,0)" xlink:href="#au"/><use transform="matrix(0.05,0,0,0.05,35,0)" xlink:href="#aT"/><use transform="matrix(0.05,0,0,0.05,45,0)" xlink:href="#az"/><use transform="matrix(0.05,0,0,0.05,50.95,0)" xlink:href="#ar"/><use transform="matrix(0.05,0,0,0.05,60.95,0)" xlink:href="#aG"/><use transform="matrix(0.05,0,0,0.05,75.9,0)" xlink:href="#ar"/><use transform="matrix(0.05,0,0,0.05,85.9,0)" xlink:href="#aG"/><use transform="matrix(0.05,0,0,0.05,100.85000000000001,0)" xlink:href="#aF"/><use transform="matrix(0.05,0,0,0.05,110.85000000000001,0)" xlink:href="#ar"/><use transform="matrix(0.05,0,0,0.05,120.85000000000001,0)" xlink:href="#az"/><use transform="matrix(0.05,0,0,0.05,126.80000000000001,0)" xlink:href="#aT"/><use transform="matrix(0.05,0,0,0.05,136.8,0)" xlink:href="#ap"/><use transform="matrix(0.05,0,0,0.05,141.8,0)" xlink:href="#ak"/><use transform="matrix(0.05,0,0,0.05,151.8,0)" xlink:href="#at"/><use transform="matrix(0.05,0,0,0.05,160.8,0)" xlink:href="#aO"/><use transform="matrix(0.05,0,0,0.05,169.8,0)" xlink:href="#ar"/><use transform="matrix(0.05,0,0,0.05,179.8,0)" xlink:href="#ao"/><use transform="matrix(0.05,0,0,0.05,189.8,0)" xlink:href="#aE"/></g><g id="X"><use transform="matrix(0.05,0,0,0.05,0,0)" xlink:href="#aE"/><use transform="matrix(0.05,0,0,0.05,9,0)" xlink:href="#ar"/><use transform="matrix(0.05,0,0,0.05,19,0)" xlink:href="#aP"/><use transform="matrix(0.05,0,0,0.05,22.95,0)" xlink:href="#ar"/><use transform="matrix(0.05,0,0,0.05,32.95,0)" xlink:href="#at"/><use transform="matrix(0.05,0,0,0.05,41.95,0)" xlink:href="#ap"/><use transform="matrix(0.05,0,0,0.05,46.95,0)" xlink:href="#ak"/><use transform="matrix(0.05,0,0,0.05,56.95,0)" xlink:href="#az"/></g><path fill="#333" d="M119 0H84L31-248h34l41 218 126-218h36" id="bA"/><g id="Y"><use transform="matrix(0.05,0,0,0.05,0,0)" xlink:href="#au"/><use transform="matrix(0.05,0,0,0.05,10,0)" xlink:href="#ay"/><use transform="matrix(0.05,0,0,0.05,20,0)" xlink:href="#aE"/><use transform="matrix(0.05,0,0,0.05,29,0)" xlink:href="#ar"/><use transform="matrix(0.05,0,0,0.05,39,0)" xlink:href="#aH"/><use transform="matrix(0.05,0,0,0.05,49,0)" xlink:href="#bA"/><use transform="matrix(0.05,0,0,0.05,60.35,0)" xlink:href="#ay"/><use transform="matrix(0.05,0,0,0.05,70.35,0)" xlink:href="#aP"/><use transform="matrix(0.05,0,0,0.05,74.3,0)" xlink:href="#an"/><use transform="matrix(0.05,0,0,0.05,78.25,0)" xlink:href="#aH"/><use transform="matrix(0.05,0,0,0.05,88.25,0)" xlink:href="#ay"/><use transform="matrix(0.05,0,0,0.05,98.25,0)" xlink:href="#ap"/><use transform="matrix(0.05,0,0,0.05,103.25,0)" xlink:href="#ak"/><use transform="matrix(0.05,0,0,0.05,113.25,0)" xlink:href="#az"/></g><path fill="#333" d="M124 0L87-78 21 0h-35l86-98-46-92h33l34 74 61-74h37l-83 92 50 98h-34" id="bB"/><g id="Z"><use transform="matrix(0.05,0,0,0.05,0,0)" xlink:href="#ar"/><use transform="matrix(0.05,0,0,0.05,10,0)" xlink:href="#bB"/><use transform="matrix(0.05,0,0,0.05,19,0)" xlink:href="#bz"/><use transform="matrix(0.05,0,0,0.05,29,0)" xlink:href="#an"/><use transform="matrix(0.05,0,0,0.05,32.95,0)" xlink:href="#az"/><use transform="matrix(0.05,0,0,0.05,38.900000000000006,0)" xlink:href="#ar"/><use transform="matrix(0.05,0,0,0.05,48.900000000000006,0)" xlink:href="#aE"/></g><g id="aa"><use transform="matrix(0.05,0,0,0.05,0,0)" xlink:href="#ay"/><use transform="matrix(0.05,0,0,0.05,10,0)" xlink:href="#av"/><use transform="matrix(0.05,0,0,0.05,20,0)" xlink:href="#ap"/><use transform="matrix(0.05,0,0,0.05,25,0)" xlink:href="#au"/><use transform="matrix(0.05,0,0,0.05,35,0)" xlink:href="#aT"/><use transform="matrix(0.05,0,0,0.05,45,0)" xlink:href="#an"/><use transform="matrix(0.05,0,0,0.05,48.95,0)" xlink:href="#aH"/><use transform="matrix(0.05,0,0,0.05,58.95,0)" xlink:href="#ar"/><use transform="matrix(0.05,0,0,0.05,68.95,0)" xlink:href="#ao"/><use transform="matrix(0.05,0,0,0.05,78.95,0)" xlink:href="#ap"/><use transform="matrix(0.05,0,0,0.05,83.95,0)" xlink:href="#an"/><use transform="matrix(0.05,0,0,0.05,87.9,0)" xlink:href="#ap"/><use transform="matrix(0.05,0,0,0.05,92.9,0)" xlink:href="#an"/><use transform="matrix(0.05,0,0,0.05,96.85000000000001,0)" xlink:href="#ar"/><use transform="matrix(0.05,0,0,0.05,106.85000000000001,0)" xlink:href="#aE"/></g><g id="ab"><use transform="matrix(0.05,0,0,0.05,0,0)" xlink:href="#ap"/><use transform="matrix(0.05,0,0,0.05,5,0)" xlink:href="#aM"/><use transform="matrix(0.05,0,0,0.05,14,0)" xlink:href="#bz"/><use transform="matrix(0.05,0,0,0.05,24,0)" xlink:href="#ar"/></g><g id="ac"><use transform="matrix(0.05,0,0,0.05,0,0)" xlink:href="#ao"/><use transform="matrix(0.05,0,0,0.05,10,0)" xlink:href="#ay"/><use transform="matrix(0.05,0,0,0.05,20,0)" xlink:href="#aG"/><use transform="matrix(0.05,0,0,0.05,34.95,0)" xlink:href="#ar"/></g><g id="ad"><use transform="matrix(0.05,0,0,0.05,0,0)" xlink:href="#aE"/><use transform="matrix(0.05,0,0,0.05,9,0)" xlink:href="#ar"/><use transform="matrix(0.05,0,0,0.05,19,0)" xlink:href="#at"/><use transform="matrix(0.05,0,0,0.05,28,0)" xlink:href="#az"/><use transform="matrix(0.05,0,0,0.05,33.95,0)" xlink:href="#ar"/><use transform="matrix(0.05,0,0,0.05,43.95,0)" xlink:href="#ap"/></g><g id="ae"><use transform="matrix(0.05,0,0,0.05,0,0)" xlink:href="#aE"/><use transform="matrix(0.05,0,0,0.05,9,0)" xlink:href="#ar"/><use transform="matrix(0.05,0,0,0.05,19,0)" xlink:href="#at"/><use transform="matrix(0.05,0,0,0.05,28,0)" xlink:href="#az"/><use transform="matrix(0.05,0,0,0.05,33.95,0)" xlink:href="#ar"/><use transform="matrix(0.05,0,0,0.05,43.95,0)" xlink:href="#ap"/><use transform="matrix(0.05,0,0,0.05,48.95,0)" xlink:href="#aB"/></g><g id="af"><use transform="matrix(0.05,0,0,0.05,0,0)" xlink:href="#ar"/><use transform="matrix(0.05,0,0,0.05,10,0)" xlink:href="#bB"/><use transform="matrix(0.05,0,0,0.05,19,0)" xlink:href="#ap"/><use transform="matrix(0.05,0,0,0.05,24,0)" xlink:href="#az"/><use transform="matrix(0.05,0,0,0.05,29.950000000000003,0)" xlink:href="#ay"/></g><g id="ag"><use transform="matrix(0.05,0,0,0.05,0,0)" xlink:href="#ap"/><use transform="matrix(0.05,0,0,0.05,5,0)" xlink:href="#ar"/><use transform="matrix(0.05,0,0,0.05,15,0)" xlink:href="#bB"/><use transform="matrix(0.05,0,0,0.05,24,0)" xlink:href="#ap"/></g><path fill="#333" d="M76-167L44 0H12l33-167H18l4-23h27c3-47 25-81 82-69l-4 24c-35-8-44 15-46 45h37l-5 23H76" id="bC"/><g id="ah"><use transform="matrix(0.05,0,0,0.05,0,0)" xlink:href="#bC"/><use transform="matrix(0.05,0,0,0.05,5,0)" xlink:href="#ak"/><use transform="matrix(0.05,0,0,0.05,15,0)" xlink:href="#az"/><use transform="matrix(0.05,0,0,0.05,20.95,0)" xlink:href="#ar"/><use transform="matrix(0.05,0,0,0.05,30.950000000000003,0)" xlink:href="#aT"/><use transform="matrix(0.05,0,0,0.05,40.95,0)" xlink:href="#az"/><use transform="matrix(0.05,0,0,0.05,46.900000000000006,0)" xlink:href="#ar"/><use transform="matrix(0.05,0,0,0.05,56.900000000000006,0)" xlink:href="#aE"/><use transform="matrix(0.05,0,0,0.05,65.9,0)" xlink:href="#ar"/><use transform="matrix(0.05,0,0,0.05,75.9,0)" xlink:href="#ap"/></g><g id="ai"><use transform="matrix(0.05,0,0,0.05,0,0)" xlink:href="#aP"/><use transform="matrix(0.05,0,0,0.05,3.95,0)" xlink:href="#ay"/><use transform="matrix(0.05,0,0,0.05,13.949999999999998,0)" xlink:href="#aE"/><use transform="matrix(0.05,0,0,0.05,22.95,0)" xlink:href="#ap"/><use transform="matrix(0.05,0,0,0.05,27.950000000000003,0)" xlink:href="#aT"/><use transform="matrix(0.05,0,0,0.05,37.95,0)" xlink:href="#av"/><use transform="matrix(0.05,0,0,0.05,47.95,0)" xlink:href="#aE"/><use transform="matrix(0.05,0,0,0.05,56.95,0)" xlink:href="#ar"/><use transform="matrix(0.05,0,0,0.05,66.95,0)" xlink:href="#aH"/><use transform="matrix(0.05,0,0,0.05,76.95,0)" xlink:href="#aT"/><use transform="matrix(0.05,0,0,0.05,86.95,0)" xlink:href="#ay"/><use transform="matrix(0.05,0,0,0.05,96.95,0)" xlink:href="#ap"/></g></defs></g></svg>